PathFileType	4	(X/Y/Z)	C:\Users\WrightLab\Desktop\Jo\P1.2Trial36.trc
DataRate	CameraRate	NumFrames	NumMarkers	Units	OrigDataRate	OrigDataStartFrame	OrigNumFrames
100.00	100.00	      72	19	mm	100.00	1	      1029
Frame#	Time	Headset_Front			Headset_Back			Headset_Left			Headset_Right			Left_Shoulder			Right_Shoulder			Sternum			C7			Left Elbow			Right Elbow			Left Wrist			Right Wrist			Left ASIS			Right ASIS			S2			Left Knee			Right Knee			Left Ankle			Right Ankle			
		X1	Y1	Z1	X2	Y2	Z2	X3	Y3	Z3	X4	Y4	Z4	X5	Y5	Z5	X6	Y6	Z6	X7	Y7	Z7	X8	Y8	Z8	X9	Y9	Z9	X10	Y10	Z10	X11	Y11	Z11	X12	Y12	Z12	X13	Y13	Z13	X14	Y14	Z14	X15	Y15	Z15	X16	Y16	Z16	X17	Y17	Z17	X18	Y18	Z18	X19	Y19	Z19	

1	0.000																																		-171.45047	806.79059	2282.79883																						
2	0.010																																		-171.24608	806.90808	2282.76172																						
3	0.020																																		-170.98042	806.96759	2282.55371																						
4	0.030																																		-170.45464	807.31500	2281.74072																						
5	0.040																																		-170.21982	807.51263	2281.30933																						
6	0.050																																		-169.78694	807.77124	2280.66089																						
7	0.060																																		-169.43240	808.06683	2280.02319																						
8	0.070																																		-169.05963	808.44574	2279.28174																						
9	0.080																																		-168.71944	808.53705	2279.02588																						
10	0.090																																		-168.60040	808.23236	2277.45728																						
11	0.100																																		-168.10703	808.51978	2276.67163																						
12	0.110																																		-167.82587	809.56384	2275.65845																						
13	0.120																																		-167.56052	809.60199	2275.42065																						
14	0.130																																		-167.15256	809.87958	2274.75562																						
15	0.140																																		-166.90552	809.91003	2274.48096																						
16	0.150																																		-166.60127	810.14264	2273.86621																						
17	0.160																																		-166.42278	810.35577	2273.46143																						
18	0.170																																		-166.08542	810.68732	2272.63550																						
19	0.180																																		-165.86438	810.82361	2272.27344																						
20	0.190																																		-165.81010	810.80829	2272.23218																						
21	0.200																																		-165.50630	810.88782	2272.01367																						
22	0.210																																		-165.43839	810.80994	2271.95313																						
23	0.220																																		-165.28038	810.86572	2271.78809																						
24	0.230																																		-165.24498	810.62134	2271.04761																						
25	0.240																																		-165.19769	810.77655	2271.53271																						
26	0.250																																		-165.28378	810.74951	2271.72803																						
27	0.260																																		-165.12331	810.04187	2271.58154																						
28	0.270																																		-165.25497	810.00464	2271.74048																						
29	0.280																																		-165.41701	809.89050	2271.81714																						
30	0.290																																		-165.68492	809.87189	2271.98511																						
31	0.300																																		-165.79889	809.77081	2272.00049																						
32	0.310																																		-166.10823	809.49133	2272.57739																						
33	0.320																																		-166.33749	809.23560	2273.14063																						
34	0.330																																		-166.55119	808.91644	2273.51001																						
35	0.340																																		-166.77576	808.74200	2273.88770																						
36	0.350																																		-166.84637	808.63879	2274.09546																						
37	0.360																																		-166.95547	808.56390	2274.12183																						
38	0.370																																		-167.18121	808.22595	2274.79150																						
39	0.380																																		-167.15228	808.09338	2274.94995																						
40	0.390																																		-167.17770	808.04810	2274.94116																						
41	0.400																																		-167.24620	807.79089	2275.30518																						
42	0.410																																		-167.32990	807.68109	2275.51733																						
43	0.420																																		-167.33102	807.62219	2275.48657																						
44	0.430																																		-167.37459	807.46252	2275.82813																						
45	0.440																																		-167.35704	807.29120	2275.92554																						
46	0.450																																		-167.28653	807.26428	2275.86841																						
47	0.460																																		-167.23593	807.21906	2275.81348																						
48	0.470																																		-167.11705	807.25745	2275.76172																						
49	0.480																																		-166.93990	807.28638	2275.55737																						
50	0.490																																		-166.63557	807.17102	2275.48706																						
51	0.500																																		-166.54541	807.08197	2275.38477																						
52	0.510																																		-166.21075	807.31659	2274.80273																						
53	0.520																																		-165.56503	807.35443	2274.18701																						
54	0.530																																		-165.32292	807.28052	2274.12231																						
55	0.540																																		-164.77354	806.70862	2273.73877																						
56	0.550																																		-164.47209	806.83783	2273.41357																						
57	0.560																																		-164.08301	806.94867	2272.90137																						
58	0.570																																		-163.42854	806.99670	2273.34668																						
59	0.580																																		-162.86208	807.26489	2272.44287																						
60	0.590																																		-162.14308	806.87994	2272.50610																						
61	0.600																																		-161.79874	806.93658	2272.22974																						
62	0.610																																		-161.49475	806.96887	2271.90869																						
63	0.620																																		-161.02312	807.17419	2271.17773																						
64	0.630																																		-160.66957	807.03711	2271.23145																						
65	0.640																																		-160.44347	807.06653	2271.01123																						
66	0.650																																		-160.14223	807.07062	2270.79663																						
67	0.660																																		-159.06856	807.22290	2270.83765																						
68	0.670																																		-158.82848	807.29651	2270.42456																						
69	0.680																																		-158.52345	807.34247	2270.18970																						
70	0.690																																		-158.33394	807.33142	2270.06763																						
71	0.700																																		-158.16632	807.44513	2269.81519																						
72	0.710																																		-157.91331	807.54053	2269.37744																						
